# xmcd
#
# Track frame offsets: 
#        150
#        14317
#        28542
#        45735
#        60492
#        80345
#        97190
#        111272
#        128000
#        142457
#        158795
#        171430
#        190265
#
# Disc length: 2759 seconds
#
# Revision: 4
# Processed by: cddbd v1.5.2PL0 Copyright (c) Steve Scherf et al.
# Submitted via: ExactAudioCopyFreeDBPlugin 1.0
#
DISCID=b30ac50d
DTITLE=George Canyon - What I Do
DYEAR=2008
DGENRE=Country
TTITLE0=Just Like You
TTITLE1=Pretty Drunk Out Tonight
TTITLE2=All or Nothing
TTITLE3=Let It Out
TTITLE4=In Your Arms Again
TTITLE5=Back to Life
TTITLE6=Betty's Buns
TTITLE7=If I Was Jesus
TTITLE8=Fool in Me
TTITLE9=What I Do
TTITLE10=Last Man
TTITLE11=Second Chance
TTITLE12=I Believe in Angels
EXTD=
EXTT0=
EXTT1=
EXTT2=
EXTT3=
EXTT4=
EXTT5=
EXTT6=
EXTT7=
EXTT8=
EXTT9=
EXTT10=
EXTT11=
EXTT12=
PLAYORDER=
